<svg width="180" height="51" viewBox="0 0 180 51" fill="none" xmlns="http://www.w3.org/2000/svg">
<path d="M55.5475 32.7228V29.3332L64.5259 21.8477H55.9712V18.5993H69.0656V21.989L60.0871 29.4744H69.4086V32.7228H55.5475ZM79.6319 33.2272C74.608 33.2272 71.0368 29.777 71.0368 25.4996C71.0368 20.8994 75.0115 18.0949 79.6319 18.0949C84.2523 18.0949 88.227 20.8994 88.227 25.4996C88.227 29.777 84.6558 33.2272 79.6319 33.2272ZM79.6319 29.8376C82.1943 29.8376 84.2926 28.1024 84.2926 25.4795C84.2926 22.8767 82.1943 21.4644 79.6319 21.4644C77.0695 21.4644 74.9711 22.8767 74.9711 25.4795C74.9711 28.1024 77.0695 29.8376 79.6319 29.8376ZM90.8797 32.7228V18.5993H98.7889C102.239 18.5993 104.438 20.6573 104.438 23.3811C104.438 25.3181 103.107 26.9322 101.089 27.6383L102.562 29.1919C103.006 29.6761 103.47 29.9183 104.015 29.9183C104.418 29.9183 104.822 29.8174 105.185 29.6963L105.487 32.6421C104.579 32.9851 103.692 33.207 102.885 33.207C101.614 33.207 100.625 32.5815 99.6564 31.3508L96.8923 27.9006H94.6124V32.7228H90.8797ZM94.6124 24.9347H98.7889C99.9187 24.9347 100.504 24.2487 100.504 23.4013C100.504 22.6346 99.9389 21.8477 98.7889 21.8477H94.6124V24.9347ZM117.896 32.7228L111.44 25.6005L118.098 18.5993H122.335L115.758 25.4189L122.577 32.7228H117.896ZM107.667 32.7228V18.5993H111.4V32.7228H107.667ZM132.77 18.5993L138.763 32.7228H134.748L133.86 30.5841H127.363L126.496 32.7228H122.561L128.554 18.5993H132.77ZM130.612 22.6951L128.715 27.2953H132.508L130.612 22.6951Z" fill="#0B0B0B"/>
<path d="M35.7783 25.8047L28.9971 13.959L31.5195 14.5381L37.5674 25.5996L40.4385 15.5635L42.0654 15.999L38.9941 27.458L47.4014 23.3057V25.1582L40.6758 28.4619L47.7041 29.7012L47.4111 31.3545L38.3809 29.748L35.4297 40.7646L33.2324 40.7715L36.1084 30.7061L18.2598 39.4766L17.5273 38.0615L35.4238 29.2207L15.4355 25.666L15.25 23.9824L35.1777 27.4932L14.4932 13.6055L14.874 11.4131L35.7783 25.8047Z" fill="#0B0B0B"/>
</svg>
